<?xml version="1.0" encoding="UTF-8"?>
<svg width="352px" height="352px" viewBox="0 0 352 352" version="1.1" xmlns="http://www.w3.org/2000/svg" xmlns:xlink="http://www.w3.org/1999/xlink">
    <!-- Generator: Sketch 62 (91390) - https://sketch.com -->
    <title>logo-last</title>
    <desc>Created with Sketch.</desc>
    <defs>
        <circle id="path-1" cx="161" cy="161" r="161"></circle>
        <filter x="-7.8%" y="-6.2%" width="115.5%" height="115.5%" filterUnits="objectBoundingBox" id="filter-2">
            <feOffset dx="0" dy="5" in="SourceAlpha" result="shadowOffsetOuter1"></feOffset>
            <feGaussianBlur stdDeviation="7.5" in="shadowOffsetOuter1" result="shadowBlurOuter1"></feGaussianBlur>
            <feColorMatrix values="0 0 0 0 0   0 0 0 0 0   0 0 0 0 0  0 0 0 0.03 0" type="matrix" in="shadowBlurOuter1" result="shadowMatrixOuter1"></feColorMatrix>
            <feOffset dx="0" dy="5" in="SourceAlpha" result="shadowOffsetOuter2"></feOffset>
            <feGaussianBlur stdDeviation="7.5" in="shadowOffsetOuter2" result="shadowBlurOuter2"></feGaussianBlur>
            <feColorMatrix values="0 0 0 0 0   0 0 0 0 0   0 0 0 0 0  0 0 0 0.03 0" type="matrix" in="shadowBlurOuter2" result="shadowMatrixOuter2"></feColorMatrix>
            <feMerge>
                <feMergeNode in="shadowMatrixOuter1"></feMergeNode>
                <feMergeNode in="shadowMatrixOuter2"></feMergeNode>
            </feMerge>
        </filter>
    </defs>
    <g id="Page-1" stroke="none" stroke-width="1" fill="none" fill-rule="evenodd">
        <g id="logo-last" transform="translate(15.000000, 10.000000)">
            <g id="Oval">
                <use fill="black" fill-opacity="1" filter="url(#filter-2)" xlink:href="#path-1"></use>
                <use fill="#FFFFFF" fill-rule="evenodd" xlink:href="#path-1"></use>
            </g>
            <g id="logoast" transform="translate(10.000000, 34.000000)">
                <path d="M20.36,130.43 L3.49,152.27 L54.8,152.27 C55.5532148,152.27 56.2755799,151.970787 56.8081833,151.438183 C57.3407866,150.90558 57.64,150.183215 57.64,149.43 L57.64,111.43 C57.64,109.861511 56.3684887,108.59 54.8,108.59 L3.49,108.59 L20.36,130.43 Z" id="Path" fill="#F7EFE4" fill-rule="nonzero"></path>
                <path d="M54.81,154.750082 L3.49,154.750082 C2.53962098,154.757696 1.66774937,154.223716 1.24271302,153.373643 C0.817676659,152.523571 0.913615674,151.505686 1.49,150.75 L17.19,130.43 L1.49,110.11 C0.913615674,109.354314 0.817676659,108.336429 1.24271302,107.486357 C1.66774937,106.636284 2.53962098,106.102304 3.49,106.109918 L54.81,106.109918 C57.7458724,106.115503 60.1244969,108.494128 60.13,111.43 L60.13,149.43 C60.1244969,152.365872 57.7458724,154.744497 54.81,154.750082 L54.81,154.750082 Z M8.54,149.75 L54.81,149.75 C54.9028258,149.75 54.9918496,149.713125 55.0574874,149.647487 C55.1231251,149.58185 55.16,149.492826 55.16,149.4 L55.16,111.4 C55.16,111.2067 55.0032997,111.05 54.81,111.05 L8.54,111.05 L22.32,128.88 C23.0003077,129.764295 23.0003077,130.995705 22.32,131.88 L8.54,149.75 Z" id="Shape" fill="#524743" fill-rule="nonzero"></path>
                <g id="Group" opacity="0.75" transform="translate(152.013672, 131.687500) rotate(5.000000) translate(-152.013672, -131.687500) translate(61.513672, 40.687500)" fill="#524743" fill-rule="nonzero">
                    <g id="Rectangle">
                        <rect transform="translate(54.339109, 54.819686) rotate(-45.000000) translate(-54.339109, -54.819686) " x="-21.8112204" y="54.4673745" width="152.300659" height="1"></rect>
                        <rect transform="translate(57.802450, 58.234689) rotate(-45.010000) translate(-57.802450, -58.234689) " x="-18.3478791" y="57.882378" width="152.300659" height="1"></rect>
                        <rect transform="translate(61.239118, 61.710127) rotate(-45.000000) translate(-61.239118, -61.710127) " x="-14.9112114" y="61.3578161" width="152.300659" height="1"></rect>
                        <rect transform="translate(64.704506, 65.165048) rotate(-45.000000) translate(-64.704506, -65.165048) " x="-11.4458239" y="64.8127373" width="152.300659" height="1"></rect>
                        <rect transform="translate(68.142456, 68.608605) rotate(-45.000000) translate(-68.142456, -68.608605) " x="-8.00787368" y="68.2562938" width="152.300659" height="1"></rect>
                        <rect transform="translate(71.596478, 72.063526) rotate(-45.000000) translate(-71.596478, -72.063526) " x="-4.55385109" y="71.7112151" width="152.300659" height="1"></rect>
                        <rect transform="translate(75.050501, 75.518447) rotate(-45.000000) translate(-75.050501, -75.518447) " x="-1.09982849" y="75.1661364" width="152.300659" height="1"></rect>
                        <rect transform="translate(78.496487, 78.981405) rotate(-45.000000) translate(-78.496487, -78.981405) " x="2.34615792" y="78.6290938" width="152.300659" height="1"></rect>
                        <rect transform="translate(81.936472, 82.443401) rotate(-44.990000) translate(-81.936472, -82.443401) " x="5.78614232" y="82.0910896" width="152.300659" height="1"></rect>
                        <rect transform="translate(85.407861, 85.871846) rotate(-45.000000) translate(-85.407861, -85.871846) " x="9.25753181" y="85.5195354" width="152.300659" height="1"></rect>
                        <rect transform="translate(88.861884, 89.315403) rotate(-45.000000) translate(-88.861884, -89.315403) " x="12.7115544" y="88.9630918" width="152.300659" height="1"></rect>
                        <rect transform="translate(92.317188, 92.752653) rotate(-45.010000) translate(-92.317188, -92.752653) " x="16.1668588" y="92.4003419" width="152.300659" height="1"></rect>
                        <rect transform="translate(95.753857, 96.225245) rotate(-45.000000) translate(-95.753857, -96.225245) " x="19.6035272" y="95.8729344" width="152.300659" height="1"></rect>
                        <rect transform="translate(99.219244, 99.680167) rotate(-45.000000) translate(-99.219244, -99.680167) " x="23.0689147" y="99.3278557" width="152.300659" height="1"></rect>
                        <rect transform="translate(102.665231, 103.131759) rotate(-45.000000) translate(-102.665231, -103.131759) " x="26.5149011" y="102.779448" width="152.300659" height="1"></rect>
                        <rect transform="translate(106.111217, 106.578644) rotate(-45.000000) translate(-106.111217, -106.578644) " x="29.9608875" y="106.226333" width="152.300659" height="1"></rect>
                        <rect transform="translate(109.565240, 110.033566) rotate(-45.000000) translate(-109.565240, -110.033566) " x="33.4149101" y="109.681255" width="152.300659" height="1"></rect>
                        <rect transform="translate(113.019262, 113.488487) rotate(-45.000000) translate(-113.019262, -113.488487) " x="36.8689327" y="113.136176" width="152.300659" height="1"></rect>
                        <rect transform="translate(116.451210, 116.967038) rotate(-44.990000) translate(-116.451210, -116.967038) " x="40.3008802" y="116.614727" width="152.300659" height="1"></rect>
                        <rect transform="translate(119.922600, 120.386965) rotate(-45.000000) translate(-119.922600, -120.386965) " x="43.7722704" y="120.034654" width="152.300659" height="1"></rect>
                        <rect transform="translate(123.382611, 123.816546) rotate(-45.010000) translate(-123.382611, -123.816546) " x="47.2322816" y="123.464235" width="152.300659" height="1"></rect>
                        <rect transform="translate(126.822609, 127.304844) rotate(-45.000000) translate(-126.822609, -127.304844) " x="50.6722795" y="126.952532" width="152.300659" height="1"></rect>
                    </g>
                </g>
                <text id="ES" stroke="#524743" stroke-width="0.5" fill="#524743" font-family="Helvetica" font-size="12.39" font-weight="normal">
                    <tspan x="28.8" y="129.06">ES</tspan>
                </text>
                <path d="M128.54,181.7 L166.92,181.7 L166.92,185.13 C166.92,187.339139 165.129139,189.13 162.92,189.13 L132.54,189.13 C130.330861,189.13 128.54,187.339139 128.54,185.13 L128.54,181.7 L128.54,181.7 Z" id="Path" fill="#505767" fill-rule="nonzero"></path>
                <path d="M164.45,191.3 L131.07,191.3 C128.501876,191.3 126.42,189.218124 126.42,186.65 L126.42,181.65 C126.42,180.451542 127.391542,179.48 128.59,179.48 L166.97,179.48 C168.148839,179.517991 169.081483,180.490605 169.070105,181.67 L169.070105,186.67 C169.0537,189.216404 166.996363,191.278194 164.45,191.3 Z M130.72,183.87 L130.72,186.67 C130.72,186.841208 130.858792,186.98 131.03,186.98 L164.45,186.98 C164.621208,186.98 164.76,186.841208 164.76,186.67 L164.76,183.87 L130.72,183.87 Z" id="Shape" fill="#524743" fill-rule="nonzero"></path>
                <rect id="Rectangle" fill="#B38063" fill-rule="nonzero" x="109.32" y="83.94" width="76.82" height="16.02" rx="4"></rect>
                <path d="M183.67,102.13 L111.8,102.13 C109.235782,102.124486 107.16,100.044224 107.16,97.48 L107.16,86.42 C107.16,83.8557761 109.235782,81.7755145 111.8,81.77 L183.67,81.77 C186.238124,81.77 188.32,83.8518759 188.32,86.42 L188.32,97.48 C188.32,100.048124 186.238124,102.13 183.67,102.13 L183.67,102.13 Z M111.8,86.13 C111.628792,86.13 111.49,86.2687917 111.49,86.44 L111.49,97.5 C111.49,97.5822171 111.522661,97.6610668 111.580797,97.7192031 C111.638933,97.7773394 111.717783,97.81 111.8,97.81 L183.67,97.81 C183.841208,97.81 183.98,97.6712083 183.98,97.5 L183.98,86.42 C183.98,86.2487917 183.841208,86.11 183.67,86.11 L111.8,86.13 Z" id="Shape" fill="#524743" fill-rule="nonzero"></path>
                <path d="M120.43,76.67 L175,76.67 C177.209139,76.67 179,78.460861 179,80.67 L179,83.94 L116.4,83.94 L116.4,80.67 C116.4,79.6039157 116.825513,78.5819271 117.58216,77.8309132 C118.338806,77.0798993 119.363946,76.6620044 120.43,76.67 Z" id="Path" fill="#B38063" fill-rule="nonzero"></path>
                <path d="M179.07,86.11 L116.47,86.11 C115.271542,86.11 114.3,85.1384579 114.3,83.94 L114.3,79.15 C114.3,76.5818759 116.381876,74.5 118.95,74.5 L176.59,74.5 C179.155842,74.5055002 181.2345,76.5841576 181.24,79.15 L181.24,83.94 C181.24,84.5155198 181.011376,85.0674678 180.604422,85.4744217 C180.197468,85.8813757 179.64552,86.11 179.07,86.11 L179.07,86.11 Z M118.64,81.77 L176.87,81.77 L176.87,79.15 C176.87,78.9787917 176.731208,78.84 176.56,78.84 L118.92,78.84 C118.748792,78.84 118.61,78.9787917 118.61,79.15 L118.64,81.77 Z" id="Shape" fill="#524743" fill-rule="nonzero"></path>
                <path d="M170.58,181.670011 L124.9,181.670011 C123.325392,181.674239 122.015466,180.460374 121.9,178.89 L116.41,99.89 L179.07,99.89 L173.58,178.89 C173.464534,180.460374 172.154608,181.674239 170.58,181.670011 Z" id="Path" fill="#9B8576" fill-rule="nonzero"></path>
                <path d="M170.58,183.870016 L124.9,183.870016 C122.196631,183.860869 119.958593,181.766799 119.77,179.07 L114.28,100.07 C114.231363,99.4705617 114.438404,98.8784981 114.85,98.44 C115.261858,98.0001349 115.837415,97.7499918 116.44,97.7499918 L179.07,97.7499918 C179.671698,97.7483468 180.246816,97.9977469 180.656826,98.4381278 C181.066836,98.8785088 181.274573,99.4699527 181.23,100.07 L175.74,179.07 C175.550594,181.778315 173.294922,183.876615 170.58,183.870016 L170.58,183.870016 Z M118.76,102.13 L124.07,178.77 C124.101196,179.195467 124.45341,179.52594 124.88,179.53 L170.56,179.53 C170.98659,179.52594 171.338804,179.195467 171.37,178.77 L176.7,102.13 L118.76,102.13 Z" id="Shape" fill="#524743" fill-rule="nonzero"></path>
                <polygon id="Path" fill="#F7EFE4" fill-rule="nonzero" points="117.57 116.15 177.9 116.15 174.48 165.51 120.99 165.51"></polygon>
                <path d="M174.48,167.67001 L120.99,167.67001 C119.858753,167.668264 118.918622,166.797772 118.83,165.67 L115.41,116.31 C115.370224,115.709924 115.58011,115.120072 115.99,114.68 C116.399098,114.243349 116.971656,113.996932 117.57,113.999972 L177.91,113.999972 C178.508344,113.996932 179.080902,114.243349 179.49,114.68 C179.89989,115.120072 180.109776,115.709924 180.07,116.31 L176.65,165.67 C176.561081,166.801608 175.61509,167.673488 174.48,167.67001 Z M123.07,163.34 L172.51,163.34 L175.63,118.34 L119.9,118.34 L123.07,163.34 Z" id="Shape" fill="#524743" fill-rule="nonzero"></path>
                <path d="M147.74,70.67 C147.143532,70.67 146.66,70.1864675 146.66,69.59 C146.659994,67.0920501 148.682056,65.0655142 151.18,65.06 L161.56,65.06 C162.437987,65.1172431 163.274917,64.6813209 163.731274,63.9290736 C164.187631,63.1768263 164.187631,62.2331737 163.731274,61.4809264 C163.274917,60.7286791 162.437987,60.2927569 161.56,60.35 L133.92,60.35 C131.503548,60.2363711 129.602779,58.2441226 129.602779,55.825 C129.602779,53.4058774 131.503548,51.4136289 133.92,51.3 L147.74,51.3 C148.29902,51.3537294 148.725717,51.8234041 148.725717,52.385 C148.725717,52.9465959 148.29902,53.4162706 147.74,53.47 L133.92,53.47 C133.042013,53.4127569 132.205083,53.8486791 131.748726,54.6009264 C131.292369,55.3531737 131.292369,56.2968263 131.748726,57.0490736 C132.205083,57.8013209 133.042013,58.2372431 133.92,58.18 L161.56,58.18 C163.976452,58.2936289 165.877221,60.2858774 165.877221,62.705 C165.877221,65.1241226 163.976452,67.1163711 161.56,67.23 L151.18,67.23 C149.876608,67.23 148.82,68.286608 148.82,69.59 C148.82,70.1864675 148.336468,70.67 147.74,70.67 L147.74,70.67 Z" id="Path" fill="#524743" fill-rule="nonzero"></path>
                <path d="M134.25,186.67 L134.25,181.67 L130.6,181.67 C129.025392,181.674239 127.715466,180.460374 127.6,178.89 L122.11,99.89 L117.48,99.89 C116.110334,99.89 115,98.7796662 115,97.41 L115,86.41 C115.005507,85.0442407 116.11423,83.9399889 117.48,83.94 L122.11,83.94 L122.11,79.15 C122.11,78.4922631 122.371285,77.8614654 122.836375,77.3963752 C123.301465,76.931285 123.932263,76.67 124.59,76.67 L118.89,76.67 C118.232263,76.67 117.601465,76.931285 117.136375,77.3963752 C116.671285,77.8614654 116.41,78.4922631 116.41,79.15 L116.41,83.94 L111.78,83.94 C110.41423,83.9399889 109.305507,85.0442407 109.3,86.41 L109.3,97.48 C109.3,98.8496662 110.410334,99.96 111.78,99.96 L116.41,99.96 L121.9,178.96 C122.015466,180.530374 123.325392,181.744239 124.9,181.74 L128.55,181.74 L128.55,186.74 C128.549989,188.10577 129.654241,189.214493 131.02,189.22 L136.72,189.22 C136.05169,189.217572 135.412646,188.945516 134.947667,188.465476 C134.482687,187.985436 134.231132,187.338048 134.25,186.67 Z" id="Path" fill="#D1D3D4" fill-rule="nonzero" style="mix-blend-mode: multiply;"></path>
                <path d="M128.54,181.7 L166.92,181.7 L166.92,185.13 C166.92,187.339139 165.129139,189.13 162.92,189.13 L132.54,189.13 C130.330861,189.13 128.54,187.339139 128.54,185.13 L128.54,181.7 L128.54,181.7 Z" id="Path" fill="#B38063" fill-rule="nonzero"></path>
                <path d="M164.45,191.3 L131.07,191.3 C128.501876,191.3 126.42,189.218124 126.42,186.65 L126.42,181.65 C126.42,180.451542 127.391542,179.48 128.59,179.48 L166.97,179.48 C168.148839,179.517991 169.081483,180.490605 169.070105,181.67 L169.070105,186.67 C169.0537,189.216404 166.996363,191.278194 164.45,191.3 Z M130.72,183.87 L130.72,186.67 C130.72,186.841208 130.858792,186.98 131.03,186.98 L164.45,186.98 C164.621208,186.98 164.76,186.841208 164.76,186.67 L164.76,183.87 L130.72,183.87 Z" id="Shape" fill="#524743" fill-rule="nonzero"></path>
                <path d="M183.67,102.13 L111.8,102.13 C109.235782,102.124486 107.16,100.044224 107.16,97.48 L107.16,86.42 C107.16,83.8557761 109.235782,81.7755145 111.8,81.77 L183.67,81.77 C186.238124,81.77 188.32,83.8518759 188.32,86.42 L188.32,97.48 C188.32,100.048124 186.238124,102.13 183.67,102.13 L183.67,102.13 Z M111.8,86.13 C111.628792,86.13 111.49,86.2687917 111.49,86.44 L111.49,97.5 C111.49,97.5822171 111.522661,97.6610668 111.580797,97.7192031 C111.638933,97.7773394 111.717783,97.81 111.8,97.81 L183.67,97.81 C183.841208,97.81 183.98,97.6712083 183.98,97.5 L183.98,86.42 C183.98,86.2487917 183.841208,86.11 183.67,86.11 L111.8,86.13 Z" id="Shape" fill="#524743" fill-rule="nonzero"></path>
                <path d="M179.07,86.11 L116.47,86.11 C115.271542,86.11 114.3,85.1384579 114.3,83.94 L114.3,79.15 C114.3,76.5818759 116.381876,74.5 118.95,74.5 L176.59,74.5 C179.155842,74.5055002 181.2345,76.5841576 181.24,79.15 L181.24,83.94 C181.24,84.5155198 181.011376,85.0674678 180.604422,85.4744217 C180.197468,85.8813757 179.64552,86.11 179.07,86.11 L179.07,86.11 Z M118.64,81.77 L176.87,81.77 L176.87,79.15 C176.87,78.9787917 176.731208,78.84 176.56,78.84 L118.92,78.84 C118.748792,78.84 118.61,78.9787917 118.61,79.15 L118.64,81.77 Z" id="Shape" fill="#524743" fill-rule="nonzero"></path>
                <path d="M170.58,183.870016 L124.9,183.870016 C122.196631,183.860869 119.958593,181.766799 119.77,179.07 L114.28,100.07 C114.231363,99.4705617 114.438404,98.8784981 114.85,98.44 C115.261858,98.0001349 115.837415,97.7499918 116.44,97.7499918 L179.07,97.7499918 C179.671698,97.7483468 180.246816,97.9977469 180.656826,98.4381278 C181.066836,98.8785088 181.274573,99.4699527 181.23,100.07 L175.74,179.07 C175.550594,181.778315 173.294922,183.876615 170.58,183.870016 L170.58,183.870016 Z M118.76,102.13 L124.07,178.77 C124.101196,179.195467 124.45341,179.52594 124.88,179.53 L170.56,179.53 C170.98659,179.52594 171.338804,179.195467 171.37,178.77 L176.7,102.13 L118.76,102.13 Z" id="Shape" fill="#524743" fill-rule="nonzero"></path>
                <path d="M174.48,167.67001 L120.99,167.67001 C119.858753,167.668264 118.918622,166.797772 118.83,165.67 L115.41,116.31 C115.370224,115.709924 115.58011,115.120072 115.99,114.68 C116.399098,114.243349 116.971656,113.996932 117.57,113.999972 L177.91,113.999972 C178.508344,113.996932 179.080902,114.243349 179.49,114.68 C179.89989,115.120072 180.109776,115.709924 180.07,116.31 L176.65,165.67 C176.561081,166.801608 175.61509,167.673488 174.48,167.67001 Z M123.07,163.34 L172.51,163.34 L175.63,118.34 L119.9,118.34 L123.07,163.34 Z" id="Shape" fill="#524743" fill-rule="nonzero"></path>
                <circle id="Oval" fill="#B38063" fill-rule="nonzero" transform="translate(147.733739, 140.827949) rotate(-22.750000) translate(-147.733739, -140.827949) " cx="147.733739" cy="140.827949" r="17.08"></circle>
                <path d="M147.74,159 C137.704986,159 129.57,150.865014 129.57,140.83 C129.57,130.794986 137.704986,122.66 147.74,122.66 C157.775014,122.66 165.91,130.794986 165.91,140.83 C165.898978,150.860445 157.770445,158.988978 147.74,159 L147.74,159 Z M147.74,124.83 C138.903444,124.83 131.74,131.993444 131.74,140.83 C131.74,149.666556 138.903444,156.83 147.74,156.83 C156.576556,156.83 163.74,149.666556 163.74,140.83 C163.74,131.993444 156.576556,124.83 147.74,124.83 Z" id="Shape" fill="#524743" fill-rule="nonzero"></path>
                <line x1="147.74" y1="135.31" x2="147.74" y2="147.09" id="Path" fill="#F7EFE4" fill-rule="nonzero"></line>
                <path d="M147.75,148.18 C147.14801,148.18 146.66,147.69199 146.66,147.09 L146.66,135.31 C146.620353,134.897496 146.818048,134.498192 147.170133,134.279635 C147.522218,134.061077 147.967782,134.061077 148.319867,134.279635 C148.671952,134.498192 148.869647,134.897496 148.83,135.31 L148.83,147.09 C148.832668,147.378163 148.720062,147.655441 148.517233,147.860148 C148.314403,148.064855 148.038175,148.18 147.75,148.18 L147.75,148.18 Z" id="Path" fill="#524743" fill-rule="nonzero"></path>
                <circle id="Oval" fill="#F7EFE4" fill-rule="nonzero" cx="147.74" cy="132.59" r="2.71"></circle>
                <path d="M147.75,136.390013 C146.21214,136.394047 144.823456,135.470777 144.232136,134.05114 C143.640816,132.631502 143.963455,130.995417 145.049456,129.90655 C146.135458,128.817683 147.770687,128.490734 149.191878,129.078311 C150.613069,129.665888 151.54,131.052135 151.54,132.59 C151.54,134.684783 149.844776,136.384487 147.75,136.390013 L147.75,136.390013 Z M147.75,130.96 C146.849776,130.96 146.12,131.689776 146.12,132.59 C146.12,133.490224 146.849776,134.22 147.75,134.22 C148.650224,134.22 149.38,133.490224 149.38,132.59 C149.38,131.689776 148.650224,130.96 147.75,130.96 Z" id="Shape" fill="#524743" fill-rule="nonzero"></path>
                <line x1="141.73" y1="141.08" x2="147.74" y2="147.09" id="Path" fill="#F7EFE4" fill-rule="nonzero"></line>
                <path d="M147.75,148.18 C147.461066,148.179604 147.18411,148.064506 146.98,147.86 L140.98,141.86 C140.561934,141.435676 140.561934,140.754324 140.98,140.33 C141.407728,139.910743 142.092272,139.910743 142.52,140.33 L148.52,146.33 C148.72585,146.531307 148.841886,146.807078 148.841886,147.095 C148.841886,147.382922 148.72585,147.658693 148.52,147.86 C148.31589,148.064506 148.038934,148.179604 147.75,148.18 Z" id="Path" fill="#524743" fill-rule="nonzero"></path>
                <path d="M142.07,137.67 C142.849866,138.447172 143.084304,139.61783 142.663852,140.63538 C142.2434,141.65293 141.250994,142.316655 140.15,142.316655 C139.049006,142.316655 138.0566,141.65293 137.636148,140.63538 C137.215696,139.61783 137.450134,138.447172 138.23,137.67 C139.29146,136.612207 141.00854,136.612207 142.07,137.67 Z" id="Path" fill="#F7EFE4" fill-rule="nonzero"></path>
                <path d="M140.19,143.330045 C138.468379,143.331808 136.960636,142.175934 136.515326,140.5129 C136.070016,138.849866 136.79841,137.095221 138.290569,136.236477 C139.782729,135.377732 141.665802,135.629465 142.88,136.85 L142.88,136.85 C144.36132,138.333532 144.36132,140.736468 142.88,142.22 C142.168023,142.935098 141.199085,143.33492 140.19,143.330045 L140.19,143.330045 Z M140.19,137.9 C139.757323,137.89686 139.342054,138.07019 139.04,138.38 C138.732835,138.685879 138.560163,139.101512 138.560163,139.535 C138.560163,139.968488 138.732835,140.384121 139.04,140.69 C139.684506,141.302067 140.695494,141.302067 141.34,140.69 C141.647165,140.384121 141.819837,139.968488 141.819837,139.535 C141.819837,139.101512 141.647165,138.685879 141.34,138.38 L141.34,138.38 C141.037946,138.07019 140.622677,137.89686 140.19,137.9 L140.19,137.9 Z" id="Shape" fill="#524743" fill-rule="nonzero"></path>
                <line x1="153.76" y1="141.08" x2="147.74" y2="147.09" id="Path" fill="#F7EFE4" fill-rule="nonzero"></line>
                <path d="M147.75,148.18 C147.313942,148.175484 146.922543,147.911504 146.754973,147.508903 C146.587404,147.106302 146.67592,146.642574 146.98,146.33 L152.98,140.33 C153.253308,140.056692 153.651664,139.949953 154.025009,140.049991 C154.398355,140.150028 154.689972,140.441645 154.790009,140.814991 C154.890047,141.188336 154.783308,141.586692 154.51,141.86 L148.51,147.86 C148.308347,148.062076 148.035464,148.176974 147.75,148.18 Z" id="Path" fill="#524743" fill-rule="nonzero"></path>
                <path d="M153.37,137.67 C152.590134,138.447172 152.355696,139.61783 152.776148,140.63538 C153.1966,141.65293 154.189006,142.316655 155.29,142.316655 C156.390994,142.316655 157.3834,141.65293 157.803852,140.63538 C158.224304,139.61783 157.989866,138.447172 157.21,137.67 C156.14854,136.612207 154.43146,136.612207 153.37,137.67 L153.37,137.67 Z" id="Path" fill="#F7EFE4" fill-rule="nonzero"></path>
                <path d="M155.29,143.350066 C153.465667,143.360679 151.888402,142.079861 151.524433,140.292172 C151.160464,138.504482 152.111389,136.708932 153.794674,136.00547 C155.477959,135.302008 157.423736,135.886996 158.440027,137.402073 C159.456319,138.917149 159.259441,140.9394 157.97,142.23 C157.262114,142.946298 156.297068,143.349601 155.29,143.350066 L155.29,143.350066 Z M155.29,137.92 C154.392047,137.925459 153.665459,138.652047 153.66,139.55 C153.660267,139.982 153.833067,140.396 154.14,140.7 C154.780355,141.322379 155.799645,141.322379 156.44,140.7 C156.746933,140.396 156.919733,139.982 156.92,139.55 C156.92314,139.117323 156.74981,138.702054 156.44,138.4 C156.136,138.093067 155.722,137.920267 155.29,137.92 Z" id="Shape" fill="#524743" fill-rule="nonzero"></path>
                <line x1="147.74" y1="147.09" x2="147.74" y2="151.78" id="Path" fill="#F7EFE4" fill-rule="nonzero"></line>
                <rect id="Rectangle" fill="#524743" fill-rule="nonzero" x="146.66" y="147.09" width="2.17" height="4.69"></rect>
                <rect id="Rectangle" fill="#524743" fill-rule="nonzero" x="79.88" y="150.42" width="16.31" height="4.34"></rect>
                <path d="M98.07,132.36 C98.0810413,135.951239 96.1749539,139.275456 93.07,141.08 C92.5586222,141.374387 92.0234049,141.62527 91.47,141.83 C91.2902581,141.900464 91.1066233,141.960563 90.92,142.01 C86.9684403,143.192936 82.6951578,141.843811 80.1391635,138.606365 C77.5831692,135.36892 77.2624349,130.899221 79.33,127.33 L88.07,112.24 L96.78,127.33 C97.6454213,128.863822 98.0904251,130.598992 98.07,132.36 L98.07,132.36 Z" id="Path" fill="#F7EFE4" fill-rule="nonzero"></path>
                <path d="M88.07,144.6 C86.8848559,144.599506 85.706004,144.42773 84.57,144.09 C83.657756,143.819574 82.7814352,143.44017 81.96,142.96 C79.1470389,141.340897 77.0944685,138.66845 76.2557334,135.533044 C75.4169983,132.397639 75.8611254,129.057314 77.49,126.25 L86.2,111.16 C86.5842178,110.490367 87.2979713,110.078146 88.07,110.079994 L88.07,110.079994 C88.8444951,110.078708 89.5609684,110.490299 89.95,111.16 L98.66,126.25 C100.282621,129.05978 100.722198,132.399193 99.8819708,135.533165 C99.0417438,138.667136 96.9905859,141.338776 94.18,142.96 C93.560146,143.317486 92.9111663,143.621905 92.24,143.87 L91.56,144.09 C90.4274199,144.427738 89.2518647,144.599524 88.07,144.6 L88.07,144.6 Z M88.07,116.6 L81.24,128.44 C79.0568339,132.196816 80.3220242,137.011692 84.07,139.21 C84.6051024,139.514083 85.1717899,139.758865 85.76,139.94 C87.2311418,140.379976 88.7988582,140.379976 90.27,139.94 L90.66,139.81 C91.1068653,139.648464 91.5385508,139.44768 91.95,139.21 C93.7675302,138.165703 95.0947937,136.441076 95.6388703,134.416735 C96.1829469,132.392395 95.8991097,130.234757 94.85,128.42 L88.07,116.6 Z" id="Shape" fill="#524743" fill-rule="nonzero"></path>
                <path d="M86.94,137.16 C86.8371848,137.174634 86.7328152,137.174634 86.63,137.16 C86.2796301,137.046799 85.9439455,136.892384 85.63,136.7 C84.0961252,135.809713 83.1486451,134.173502 83.14,132.4 C83.1346744,131.531073 83.3663107,130.67713 83.81,129.93 C83.9982536,129.586659 84.3575987,129.372106 84.7491527,129.369235 C85.1407066,129.366421 85.5031286,129.575734 85.6963471,129.916306 C85.8895655,130.256878 85.8833106,130.675355 85.68,131.01 C85.4346273,131.431927 85.3068589,131.911922 85.31,132.4 C85.321155,133.633805 86.130388,134.718178 87.31,135.08 C87.8334511,135.22623 88.1666922,135.738664 88.0880555,136.276437 C88.0094188,136.814211 87.5434047,137.209773 87,137.2 L86.94,137.16 Z" id="Path" fill="#524743" fill-rule="nonzero"></path>
                <rect id="Rectangle" fill="#524743" fill-rule="nonzero" x="199.28" y="150.42" width="16.31" height="4.34"></rect>
                <ellipse id="Oval" fill="#F7EFE4" fill-rule="nonzero" cx="207.43" cy="129.24" rx="9.36" ry="12.91"></ellipse>
                <path d="M207.44,144.32 C201.08,144.32 195.91,137.55 195.91,129.24 C195.91,120.93 201.08,114.15 207.44,114.15 C213.8,114.15 218.96,120.92 218.96,129.24 C218.96,137.56 213.79,144.32 207.44,144.32 Z M207.44,118.49 C203.54,118.49 200.25,123.41 200.25,129.24 C200.25,135.07 203.54,139.98 207.44,139.98 C211.34,139.98 214.63,135.06 214.63,129.24 C214.63,123.42 211.34,118.49 207.44,118.49 Z" id="Shape" fill="#524743" fill-rule="nonzero"></path>
                <path d="M207.44,141.59 C207.003942,141.585484 206.612543,141.321504 206.444973,140.918903 C206.277404,140.516302 206.36592,140.052574 206.67,139.74 C209.358092,137.049738 209.358092,132.690262 206.67,130 C203.140358,126.463316 203.140358,120.736684 206.67,117.2 C207.097728,116.780743 207.782272,116.780743 208.21,117.2 C208.628066,117.624324 208.628066,118.305676 208.21,118.73 C205.521908,121.420262 205.521908,125.779738 208.21,128.47 C211.728675,132.011213 211.728675,137.728787 208.21,141.27 C208.004674,141.472682 207.7285,141.587456 207.44,141.59 Z" id="Path" fill="#524743" fill-rule="nonzero"></path>
                <path d="M279.78,132.55 L298.13,156.3 L242.33,156.3 C240.62344,156.3 239.24,154.91656 239.24,153.21 L239.24,111.9 C239.24,110.19344 240.62344,108.81 242.33,108.81 L298.13,108.81 L279.78,132.55 Z" id="Path" fill="#F7EFE4" fill-rule="nonzero"></path>
                <path d="M298.13,159 L242.33,159 C239.134554,158.994495 236.545505,156.405446 236.54,153.21 L236.54,111.9 C236.54,108.702271 239.132271,106.11 242.33,106.11 L298.13,106.11 C299.158185,106.112728 300.095578,106.699194 300.54774,107.622624 C300.999902,108.546053 300.888341,109.646145 300.26,110.46 L283.19,132.55 L300.26,154.67 C300.888341,155.483855 300.999902,156.583947 300.54774,157.507376 C300.095578,158.430806 299.158185,159.017272 298.13,159.02 L298.13,159 Z M242.33,111.51 C242.114609,111.51 241.94,111.684609 241.94,111.9 L241.94,153.21 C241.94,153.425391 242.114609,153.6 242.33,153.6 L292.63,153.6 L277.63,134.21 C276.870841,133.237253 276.870841,131.872747 277.63,130.9 L292.63,111.51 L242.33,111.51 Z" id="Shape" fill="#524743" fill-rule="nonzero"></path>
                <text id="2020" stroke="#524743" stroke-width="0.5" fill="#524743" font-family="Helvetica" font-size="11.39" font-weight="normal">
                    <tspan x="245.43" y="135.59">2020</tspan>
                </text>
                <text id="V" fill="#524743" transform="translate(75.790000, 215.215000) rotate(39.732303) translate(-75.790000, -215.215000) " font-family="Helvetica" font-size="20.44" font-weight="normal">
                    <tspan x="68.7812555" y="222.699385">V</tspan>
                </text>
                <text id="A" fill="#524743" transform="translate(87.413039, 223.623928) rotate(32.490000) translate(-87.413039, -223.623928) " font-family="Helvetica" font-size="20.44" font-weight="normal">
                    <tspan x="80.4130395" y="231.123928">A</tspan>
                </text>
                <text id="N" fill="#524743" transform="translate(102.940000, 231.720000) rotate(23.498566) translate(-102.940000, -231.720000) " font-family="Helvetica" font-size="20.44" font-weight="normal">
                    <tspan x="95.4160383" y="239.180064">N</tspan>
                </text>
                <text id="I" fill="#524743" transform="translate(114.915000, 236.090000) rotate(16.808692) translate(-114.915000, -236.090000) " font-family="Helvetica" font-size="20.44" font-weight="normal">
                    <tspan x="111.906462" y="243.554426">I</tspan>
                </text>
                <text id="L" fill="#524743" transform="translate(126.001247, 238.864499) rotate(11.560000) translate(-126.001247, -238.864499) " font-family="Helvetica" font-size="20.44" font-weight="normal">
                    <tspan x="120.001247" y="246.364499">L</tspan>
                </text>
                <text id="L" fill="#524743" transform="translate(139.455582, 240.648002) rotate(4.710000) translate(-139.455582, -240.648002) " font-family="Helvetica" font-size="20.44" font-weight="normal">
                    <tspan x="133.455582" y="248.148002">L</tspan>
                </text>
                <text id="A" fill="#524743" transform="translate(154.235000, 240.750000) rotate(-2.862405) translate(-154.235000, -240.750000) " font-family="Helvetica" font-size="20.44" font-weight="normal">
                    <tspan x="147.226255" y="248.234385">A</tspan>
                </text>
                <text id="S" fill="#524743" transform="translate(177.938051, 236.896513) rotate(-14.380000) translate(-177.938051, -236.896513) " font-family="Helvetica" font-size="20.44" font-weight="normal">
                    <tspan x="170.938051" y="244.396513">S</tspan>
                </text>
                <text id="H" fill="#524743" transform="translate(191.967260, 232.010069) rotate(-22.510000) translate(-191.967260, -232.010069) " font-family="Helvetica" font-size="20.44" font-weight="normal">
                    <tspan x="184.46726" y="239.510069">H</tspan>
                </text>
                <text id="O" fill="#524743" transform="translate(208.275000, 223.445000) rotate(-31.944753) translate(-208.275000, -223.445000) " font-family="Helvetica" font-size="20.44" font-weight="normal">
                    <tspan x="200.261412" y="230.923768">O</tspan>
                </text>
                <text id="P" fill="#524743" transform="translate(222.285000, 213.030000) rotate(-40.539152) translate(-222.285000, -213.030000) " font-family="Helvetica" font-size="20.44" font-weight="normal">
                    <tspan x="215.28465" y="220.529375">P</tspan>
                </text>
                <text id="T" fill="#524743" transform="translate(65.415000, 48.875000) rotate(-47.030914) translate(-65.415000, -48.875000) " font-family="Helvetica" font-size="20.44" font-weight="normal">
                    <tspan x="58.930293" y="56.4044096">T</tspan>
                </text>
                <text id="H" fill="#524743" transform="translate(77.765415, 37.663266) rotate(-38.420000) translate(-77.765415, -37.663266) " font-family="Helvetica" font-size="20.44" font-weight="normal">
                    <tspan x="70.2654146" y="45.1632658">H</tspan>
                </text>
                <text id="U" fill="#524743" transform="translate(93.554251, 27.307347) rotate(-28.940000) translate(-93.554251, -27.307347) " font-family="Helvetica" font-size="20.44" font-weight="normal">
                    <tspan x="86.054251" y="34.8073472">U</tspan>
                </text>
                <text id="N" fill="#524743" transform="translate(110.749638, 19.747823) rotate(-19.360000) translate(-110.749638, -19.747823) " font-family="Helvetica" font-size="20.44" font-weight="normal">
                    <tspan x="103.249638" y="27.2478234">N</tspan>
                </text>
                <text id="D" fill="#524743" transform="translate(129.215148, 15.097835) rotate(-9.660000) translate(-129.215148, -15.097835) " font-family="Helvetica" font-size="20.44" font-weight="normal">
                    <tspan x="121.715148" y="22.5978347">D</tspan>
                </text>
                <text id="E" fill="#524743" transform="translate(147.784689, 13.584972) rotate(-0.950000) translate(-147.784689, -13.584972) " font-family="Helvetica" font-size="20.44" font-weight="normal">
                    <tspan x="140.784689" y="21.0849718">E</tspan>
                </text>
                <text id="R" fill="#524743" transform="translate(163.729256, 14.701383) rotate(7.010000) translate(-163.729256, -14.701383) " font-family="Helvetica" font-size="20.44" font-weight="normal">
                    <tspan x="156.229256" y="22.2013828">R</tspan>
                </text>
                <text id="S" fill="#524743" transform="translate(188.370000, 21.060000) rotate(19.885165) translate(-188.370000, -21.060000) " font-family="Helvetica" font-size="20.44" font-weight="normal">
                    <tspan x="181.372801" y="28.565001">S</tspan>
                </text>
                <text id="H" fill="#524743" transform="translate(202.970000, 27.870000) rotate(28.610460) translate(-202.970000, -27.870000) " font-family="Helvetica" font-size="20.44" font-weight="normal">
                    <tspan x="195.452022" y="35.3400359">H</tspan>
                </text>
                <text id="O" fill="#524743" transform="translate(219.010000, 38.750000) rotate(38.480198) translate(-219.010000, -38.750000) " font-family="Helvetica" font-size="20.44" font-weight="normal">
                    <tspan x="211.038852" y="46.2950813">O</tspan>
                </text>
                <text id="P" fill="#524743" transform="translate(232.538860, 51.526110) rotate(47.400000) translate(-232.538860, -51.526110) " font-family="Helvetica" font-size="20.44" font-weight="normal">
                    <tspan x="225.53886" y="59.0261098">P</tspan>
                </text>
            </g>
        </g>
    </g>
</svg>