<?xml version="1.0" encoding="UTF-8"?>
<svg width="70px" height="42px" viewBox="0 0 70 42" version="1.1" xmlns="http://www.w3.org/2000/svg" xmlns:xlink="http://www.w3.org/1999/xlink">
    <!-- Generator: Sketch 62 (91390) - https://sketch.com -->
    <title>Shape</title>
    <desc>Created with Sketch.</desc>
    <g id="Page-1" stroke="none" stroke-width="1" fill="none" fill-rule="evenodd">
        <g id="noun_truck-delivery_2721556" fill="#FFFFFF">
            <path d="M5.26,0.129 L40.178,0.129 C41.839,0.129 43.198,1.488 43.198,3.149 L43.198,27.337 L2.24,27.337 L2.24,3.149 C2.24,1.488 3.599,0.129 5.26,0.129 Z M16.767,32.017 C19.489,32.017 21.695,34.223 21.695,36.944 C21.695,39.665 19.489,41.871 16.767,41.871 C14.045,41.871 11.839,39.665 11.839,36.944 C11.839,34.223 14.045,32.017 16.767,32.017 Z M55.221,31.342 C57.943,31.342 60.15,33.548 60.15,36.269 C60.15,38.99 57.943,41.196 55.221,41.196 C52.5,41.196 50.293,38.99 50.293,36.269 C50.293,33.548 52.5,31.342 55.221,31.342 Z M65.673,10.935 C67.115,14.287 68.321,17.64 69.654,21.016 L69.654,23.93 L69.654,28.432 L69.654,28.432 L69.654,31.57 L69.654,31.57 L69.654,33.312 L69.654,33.505 C69.654,34.582 68.775,35.461 67.697,35.461 L62.144,35.461 C61.744,31.993 58.797,29.301 55.221,29.301 C51.645,29.301 48.699,31.993 48.298,35.461 L45.198,35.461 L23.579,35.461 C22.899,32.325 20.108,29.976 16.767,29.976 C13.427,29.976 10.636,32.325 9.956,35.461 L2.296,35.461 L0.346,35.461 L0.346,30.86 C0.346,30.023 1.032,29.337 1.869,29.337 L45.198,29.337 L45.198,27.595 L45.198,10.929 C45.198,8.847 46.484,8.134 48.665,8.134 C52.726,8.134 56.787,8.134 60.847,8.134 C62.782,8.134 64.565,9.093 65.536,10.588 L65.673,10.935 Z M67.779,22.935 L67.7931302,21.236 C67.795,21.103 67.774,20.99 67.727,20.867 C66.658,18.094 65.63,15.335 64.443,12.576 L64.306,12.228 C63.335,10.733 61.552,9.775 59.617,9.775 L58.284,9.775 C56.08,9.775 54.282,11.573 54.282,13.777 L54.282,19.896 C54.282,22.116 56.096,23.93 58.316,23.93 L66.777,23.93 C67.326,23.93 67.775,23.485 67.779,22.935 L67.779,22.935 Z" id="Shape"></path>
        </g>
    </g>
</svg>